<svg width="540" height="100" xmlns="http://www.w3.org/2000/svg" version="1.1" xml:space="preserve">
 <g>
  <title>Layer 1</title>
  <g stroke="null" id="svg_1">
   <g stroke="null" id="svg_2">
    <rect stroke="null" x="0.99997" y="79.02188" class="st0" width="537.77166" height="7.24384" fill="#FEC905" id="svg_3"/>
    <g stroke="null" id="svg_4">
     <g stroke="null" id="svg_5">
      <path stroke="null" class="st1" d="m15.56132,59.69413l17.37778,0l0,11.66035l-31.87079,0l0,-52.96309l14.49388,0l0,41.30274l-0.00087,0z" fill="#4276AD" id="svg_6"/>
     </g>
     <g stroke="null" id="svg_7">
      <path stroke="null" class="st1" d="m50.03661,45.4324l-14.04581,-1.47995c0.52938,-2.45463 1.29404,-4.38649 2.2931,-5.79474c0.99821,-1.40825 2.43756,-2.62973 4.3146,-3.66444c1.34767,-0.7454 3.20135,-1.3232 5.5602,-1.73259c2.35884,-0.40938 4.91058,-0.61366 7.65435,-0.61366c4.40543,0 7.94326,0.2468 10.61523,0.74039c2.67197,0.4936 4.89847,1.52247 6.6795,3.08664c1.25165,1.08307 2.23861,2.61722 2.96088,4.60327c0.72227,1.98605 1.08298,3.88123 1.08298,5.68635l0,16.93231c0,1.80512 0.11418,3.21921 0.3434,4.24225c0.22836,1.02304 0.72746,2.32874 1.49817,3.91708l-13.79323,0c-0.5536,-0.98636 -0.91517,-1.73842 -1.08298,-2.2562c-0.16867,-0.51694 -0.33735,-1.32987 -0.50516,-2.43713c-1.92635,1.85348 -3.83972,3.17668 -5.74098,3.97127c-2.59931,1.05889 -5.62074,1.58834 -9.06257,1.58834c-4.5741,0 -8.0462,-1.05889 -10.41715,-3.17668c-2.37096,-2.11779 -3.55687,-4.72917 -3.55687,-7.83416c0,-2.91238 0.85375,-5.30698 2.56385,-7.18464c1.70923,-1.87766 4.86214,-3.2734 9.46047,-4.18805c5.51176,-1.10642 9.08678,-1.88267 10.72336,-2.32874c1.63657,-0.44524 3.37002,-1.02888 5.19949,-1.75093c0,-1.80512 -0.37368,-3.06913 -1.11931,-3.79118c-0.74649,-0.72205 -2.05783,-1.08307 -3.93573,-1.08307c-2.40729,0 -4.21253,0.3852 -5.41574,1.15561c-0.93852,0.60115 -1.69626,1.73175 -2.27407,3.39263l-0.00001,0zm12.74572,7.7266c-2.02236,0.72205 -4.12863,1.35989 -6.3188,1.91352c-2.9851,0.79459 -4.87426,1.57667 -5.66919,2.34708c-0.81829,0.79459 -1.22743,1.69673 -1.22743,2.7081c0,1.15561 0.40309,2.10028 1.20927,2.834c0.80617,0.73456 1.99122,1.10142 3.55687,1.10142c1.63657,0 3.15897,-0.39688 4.56718,-1.19147c1.40821,-0.79459 2.40642,-1.7626 2.99721,-2.90654c0.58993,-1.14311 0.88489,-2.62973 0.88489,-4.45903l0,-2.34708l-0.00001,0z" fill="#4276AD" id="svg_8"/>
     </g>
     <g stroke="null" id="svg_9">
      <path stroke="null" class="st1" d="m107.4395,18.39139l14.27157,0l11.31415,28.30751l11.97934,-28.30751l14.41949,0l8.43025,52.96309l-14.49388,0l-4.06721,-30.48534l-0.14791,0l-13.38409,30.48534l-5.7678,0l-12.7933,-30.48534l-0.14791,0l-4.65887,30.48534l-14.41949,0l9.46565,-52.96309z" fill="#4276AD" id="svg_10"/>
     </g>
     <g stroke="null" id="svg_11">
      <path stroke="null" class="st1" d="m183.39829,45.4324l-14.04581,-1.47995c0.52938,-2.45463 1.29404,-4.38649 2.2931,-5.79474c0.99821,-1.40825 2.43756,-2.62973 4.3146,-3.66444c1.34767,-0.7454 3.20135,-1.3232 5.5602,-1.73259c2.35884,-0.40938 4.91058,-0.61366 7.65435,-0.61366c4.40543,0 7.94326,0.2468 10.61523,0.74039c2.67197,0.4936 4.89847,1.52247 6.6795,3.08664c1.25165,1.08307 2.23861,2.61722 2.96088,4.60327c0.72227,1.98605 1.08298,3.88123 1.08298,5.68635l0,16.93231c0,1.80512 0.11418,3.21921 0.3434,4.24225c0.22836,1.02304 0.72746,2.32874 1.49817,3.91708l-13.79323,0c-0.5536,-0.98636 -0.91517,-1.73842 -1.08298,-2.2562c-0.16867,-0.51694 -0.33735,-1.32987 -0.50516,-2.43713c-1.92635,1.85348 -3.83972,3.17668 -5.74098,3.97127c-2.59931,1.05889 -5.62074,1.58834 -9.06257,1.58834c-4.5741,0 -8.0462,-1.05889 -10.41715,-3.17668c-2.37096,-2.11779 -3.55687,-4.72917 -3.55687,-7.83416c0,-2.91238 0.85375,-5.30698 2.56385,-7.18464c1.70923,-1.87766 4.86214,-3.2734 9.46047,-4.18805c5.51176,-1.10642 9.08678,-1.88267 10.72336,-2.32874c1.63657,-0.44524 3.37002,-1.02888 5.19949,-1.75093c0,-1.80512 -0.37368,-3.06913 -1.11931,-3.79118c-0.74649,-0.72205 -2.05783,-1.08307 -3.93573,-1.08307c-2.40729,0 -4.21253,0.3852 -5.41574,1.15561c-0.93852,0.60115 -1.69626,1.73175 -2.27407,3.39263l-0.00001,0zm12.74572,7.7266c-2.02236,0.72205 -4.12863,1.35989 -6.3188,1.91352c-2.9851,0.79459 -4.87426,1.57667 -5.66919,2.34708c-0.81829,0.79459 -1.22743,1.69673 -1.22743,2.7081c0,1.15561 0.40309,2.10028 1.20927,2.834c0.80617,0.73456 1.99122,1.10142 3.55687,1.10142c1.63657,0 3.15897,-0.39688 4.56718,-1.19147c1.40821,-0.79459 2.40642,-1.7626 2.99721,-2.90654c0.58993,-1.14311 0.88489,-2.62973 0.88489,-4.45903l0,-2.34708l-0.00001,0z" fill="#4276AD" id="svg_12"/>
      <path stroke="null" class="st1" d="m214.73624,33.01247l13.7569,0l0,6.28167c1.32344,-2.71978 2.69014,-4.59077 4.09835,-5.61381c1.40821,-1.02304 3.14686,-1.53415 5.21766,-1.53415c2.16682,0 4.53691,0.67452 7.11287,2.02191l-4.54988,10.46972c-1.73345,-0.72205 -3.10534,-1.08307 -4.11652,-1.08307c-1.92635,0 -3.41847,0.79459 -4.47722,2.38293c-1.51634,2.23869 -2.27494,6.42674 -2.27494,12.56416l0,12.85265l-14.76721,0l0,-38.342l-0.00001,0z" fill="#4276AD" id="svg_13"/>
      <path stroke="null" class="st1" d="m241.8556,60.70466l14.5873,-1.37156c0.60117,1.73259 1.44455,2.97324 2.52752,3.71864c1.08298,0.74623 2.52752,1.11893 4.33276,1.11893c1.97306,0 3.50237,-0.42022 4.58534,-1.26234c0.84251,-0.6245 1.26376,-1.40491 1.26376,-2.34291c0,-1.05723 -0.5536,-1.87433 -1.66079,-2.4513c-0.79407,-0.40855 -2.9012,-0.91298 -6.3188,-1.51414c-5.10348,-0.8888 -8.64737,-1.71258 -10.6334,-2.47048c-1.98603,-0.75707 -3.65893,-2.03775 -5.01871,-3.8412c-1.36064,-1.80262 -2.03966,-3.85955 -2.03966,-6.16744c0,-2.52467 0.73438,-4.70083 2.20228,-6.52846c1.4679,-1.8268 3.49026,-3.19169 6.06622,-4.093c2.57509,-0.90131 6.02989,-1.35238 10.36265,-1.35238c4.57323,0 7.94932,0.34935 10.12824,1.04722c2.17806,0.6987 3.99542,1.78178 5.45207,3.24922c1.45579,1.46828 2.66592,3.45433 3.62866,5.95733l-13.93682,1.37156c-0.3607,-1.22732 -0.96274,-2.1303 -1.80525,-2.7081c-1.15563,-0.77041 -2.55174,-1.15561 -4.18831,-1.15561c-1.66079,0 -2.87092,0.29432 -3.62866,0.8838c-0.7586,0.58865 -1.13747,1.30403 -1.13747,2.14447c0,0.93716 0.48094,1.64587 1.44455,2.12696c0.96274,0.48025 3.05689,0.91298 6.28247,1.29819c4.88637,0.55279 8.52108,1.32237 10.90415,2.30872c2.38307,0.98636 4.20648,2.3921 5.47024,4.21974c1.26376,1.82764 1.89521,3.83537 1.89521,6.02319c0,2.21284 -0.66778,4.36482 -2.0042,6.45676c-1.33642,2.09194 -3.44269,3.75699 -6.3188,4.99515c-2.87698,1.23732 -6.79454,1.85682 -11.75271,1.85682c-7.00474,0 -11.99404,-0.99886 -14.96616,-2.99659c-2.97385,-1.99856 -4.88117,-4.83923 -5.72368,-8.52119l0,0z" fill="#4276AD" id="svg_14"/>
      <path stroke="null" class="st1" d="m328.57234,55.83041l-29.4635,0c0.26469,2.35875 0.90305,4.11552 1.91337,5.27113c1.42032,1.66088 3.27315,2.49132 5.5602,2.49132c1.44455,0 2.81643,-0.36102 4.11652,-1.08307c0.79407,-0.45691 1.64868,-1.264 2.56385,-2.41878l14.47917,1.33571c-2.21526,3.85121 -4.88723,6.61351 -8.01592,8.28606c-3.12955,1.67255 -7.61889,2.50883 -13.46799,2.50883c-5.07926,0 -9.07554,-0.71621 -11.98712,-2.14781c-2.91244,-1.43159 -5.32578,-3.70613 -7.23916,-6.82362c-1.91337,-3.11665 -2.87092,-6.7811 -2.87092,-10.99333c0,-5.99318 1.91943,-10.84325 5.75914,-14.54938c3.83886,-3.70613 9.14042,-5.55962 15.90555,-5.55962c5.4884,0 9.82117,0.83044 12.9983,2.49132c3.17713,1.66088 5.59653,4.06799 7.25732,7.2205c1.66079,3.15334 2.49119,7.25718 2.49119,12.31153l0,1.65921l0,0zm-14.94886,-7.0404c-0.28891,-2.83984 -1.05357,-4.87425 -2.2931,-6.10157c-1.2404,-1.22732 -2.87092,-1.84098 -4.89242,-1.84098c-2.33549,0 -4.20042,0.92716 -5.59653,2.77981c-0.89094,1.15561 -1.45665,2.87653 -1.69712,5.16274l14.47917,0l0,0z" fill="#4276AD" id="svg_15"/>
      <path stroke="null" class="st1" d="m331.13273,18.42724l14.69542,0l0,10.0003l-14.69542,0l0,-10.0003zm0,14.58524l14.69542,0l0,38.342l-14.69542,0l0,-38.342z" fill="#4276AD" id="svg_16"/>
      <path stroke="null" class="st1" d="m350.9152,18.42724l14.73175,0l0,52.92807l-14.73175,0l0,-52.92807z" fill="#4276AD" id="svg_17"/>
      <path stroke="null" class="st1" d="m370.73399,18.42724l14.73175,0l0,52.92807l-14.73175,0l0,-52.92807z" fill="#4276AD" id="svg_18"/>
      <path stroke="null" class="st1" d="m403.44296,45.4324l-14.04581,-1.47995c0.52938,-2.45463 1.29404,-4.38649 2.2931,-5.79474c0.99821,-1.40825 2.43756,-2.62973 4.3146,-3.66444c1.34767,-0.7454 3.20135,-1.3232 5.5602,-1.73259c2.35884,-0.40938 4.91058,-0.61366 7.65435,-0.61366c4.40543,0 7.94326,0.2468 10.61523,0.74039c2.67197,0.4936 4.89847,1.52247 6.6795,3.08664c1.25165,1.08307 2.23861,2.61722 2.96088,4.60327c0.72227,1.98605 1.08298,3.88123 1.08298,5.68635l0,16.93231c0,1.80512 0.11418,3.21921 0.3434,4.24225c0.22836,1.02304 0.72746,2.32874 1.49817,3.91708l-13.79237,0c-0.55446,-0.98636 -0.91517,-1.73842 -1.08298,-2.2562c-0.16867,-0.51694 -0.33735,-1.32987 -0.50516,-2.43713c-1.92635,1.85348 -3.83972,3.17668 -5.74098,3.97127c-2.59931,1.05889 -5.62074,1.58834 -9.06257,1.58834c-4.5741,0 -8.0462,-1.05889 -10.41715,-3.17668c-2.37096,-2.11779 -3.55687,-4.72917 -3.55687,-7.83416c0,-2.91238 0.85462,-5.30698 2.56385,-7.18464c1.70923,-1.87766 4.86214,-3.2734 9.46047,-4.18805c5.51176,-1.10642 9.08678,-1.88267 10.72336,-2.32874c1.63657,-0.44524 3.37002,-1.02888 5.19949,-1.75093c0,-1.80512 -0.37368,-3.06913 -1.11931,-3.79118c-0.74649,-0.72205 -2.05783,-1.08307 -3.93573,-1.08307c-2.40729,0 -4.21253,0.3852 -5.41574,1.15561c-0.93939,0.60115 -1.69799,1.73175 -2.27494,3.39263l-0.00001,0zm12.74572,7.7266c-2.02236,0.72205 -4.12863,1.35989 -6.3188,1.91352c-2.9851,0.79459 -4.87426,1.57667 -5.66919,2.34708c-0.81829,0.79459 -1.22743,1.69673 -1.22743,2.7081c0,1.15561 0.40309,2.10028 1.20927,2.834c0.80617,0.73456 1.99122,1.10142 3.55687,1.10142c1.63657,0 3.15983,-0.39688 4.56718,-1.19147c1.40821,-0.79459 2.40642,-1.7626 2.99721,-2.90654c0.58993,-1.14311 0.88489,-2.62973 0.88489,-4.45903l0,-2.34708l-0.00001,0z" fill="#4276AD" id="svg_19"/>
      <path stroke="null" class="st1" d="m435.17795,18.42724l14.69542,0l0,10.0003l-14.69542,0l0,-10.0003zm0,14.58524l14.69542,0l0,38.342l-14.69542,0l0,-38.342z" fill="#4276AD" id="svg_20"/>
      <path stroke="null" class="st1" d="m451.85508,60.70466l14.5873,-1.37156c0.60117,1.73259 1.44455,2.97324 2.52752,3.71864c1.08298,0.74623 2.52752,1.11893 4.33276,1.11893c1.97306,0 3.50237,-0.42022 4.58534,-1.26234c0.84251,-0.6245 1.26376,-1.40491 1.26376,-2.34291c0,-1.05723 -0.5536,-1.87433 -1.66079,-2.4513c-0.79407,-0.40855 -2.9012,-0.91298 -6.3188,-1.51414c-5.10348,-0.8888 -8.64737,-1.71258 -10.6334,-2.47048c-1.98603,-0.75707 -3.65893,-2.03775 -5.01871,-3.8412c-1.36064,-1.80262 -2.03966,-3.85955 -2.03966,-6.16744c0,-2.52467 0.73438,-4.70083 2.20228,-6.52846c1.4679,-1.8268 3.49026,-3.19169 6.06622,-4.093c2.57509,-0.90131 6.02989,-1.35238 10.36265,-1.35238c4.57323,0 7.94932,0.34935 10.12824,1.04722c2.17806,0.6987 3.99542,1.78178 5.45207,3.24922c1.45579,1.46828 2.66592,3.45433 3.62866,5.95733l-13.93682,1.37156c-0.3607,-1.22732 -0.96274,-2.1303 -1.80525,-2.7081c-1.15563,-0.77041 -2.55174,-1.15561 -4.18831,-1.15561c-1.66079,0 -2.87092,0.29432 -3.62866,0.8838s-1.13747,1.30403 -1.13747,2.14447c0,0.93716 0.48094,1.64587 1.44455,2.12696c0.96274,0.48025 3.05689,0.91298 6.28247,1.29819c4.88637,0.55279 8.52108,1.32237 10.90415,2.30872s4.20648,2.3921 5.47024,4.21974c1.26376,1.82764 1.89521,3.83537 1.89521,6.02319c0,2.21284 -0.66778,4.36482 -2.0042,6.45676c-1.33556,2.09194 -3.44269,3.75699 -6.3188,4.99515c-2.87698,1.23732 -6.79454,1.85682 -11.75271,1.85682c-7.00474,0 -11.99404,-0.99886 -14.96616,-2.99659c-2.97385,-1.99856 -4.88117,-4.83923 -5.72368,-8.52119l0,0z" fill="#4276AD" id="svg_21"/>
      <path stroke="null" class="st1" d="m538.57182,55.83041l-29.4635,0c0.26469,2.35875 0.90305,4.11552 1.91337,5.27113c1.42032,1.66088 3.27315,2.49132 5.5602,2.49132c1.44455,0 2.81643,-0.36102 4.11652,-1.08307c0.79407,-0.45691 1.64868,-1.264 2.56385,-2.41878l14.47917,1.33571c-2.21526,3.85121 -4.88723,6.61351 -8.01592,8.28606c-3.12955,1.67255 -7.61889,2.50883 -13.46799,2.50883c-5.07926,0 -9.07554,-0.71621 -11.98712,-2.14781c-2.91244,-1.43159 -5.32578,-3.70613 -7.23916,-6.82362c-1.91337,-3.11665 -2.87092,-6.7811 -2.87092,-10.99333c0,-5.99318 1.91943,-10.84325 5.75914,-14.54938c3.83886,-3.70613 9.14042,-5.55962 15.90555,-5.55962c5.4884,0 9.82117,0.83044 12.9983,2.49132c3.17713,1.66088 5.59653,4.06799 7.25732,7.2205c1.66079,3.15334 2.49119,7.25718 2.49119,12.31153l0,1.65921l0,0zm-14.948,-7.0404c-0.28891,-2.83984 -1.05357,-4.87425 -2.2931,-6.10157c-1.2404,-1.22732 -2.87092,-1.84098 -4.89242,-1.84098c-2.33549,0 -4.20042,0.92716 -5.59653,2.77981c-0.89094,1.15561 -1.45665,2.87653 -1.69712,5.16274l14.47917,0l0,0z" fill="#4276AD" id="svg_22"/>
     </g>
    </g>
   </g>
  </g>
 </g>

</svg>